HIERARCHY
ROOT Hips
{
	OFFSET 54.866402 -13.263610 57.676796
	CHANNELS 6 Xposition Yposition Zposition Xrotation Yrotation Zrotation
	JOINT spine
	{
		OFFSET 0.000000 -0.467660 8.132492
		CHANNELS 3 Xrotation Yrotation Zrotation
		JOINT spine1
		{
			OFFSET 0.000000 -0.000002 10.349800
			CHANNELS 3 Xrotation Yrotation Zrotation
			JOINT spine2
			{
				OFFSET 0.000000 -0.000002 9.916992
				CHANNELS 3 Xrotation Yrotation Zrotation
				JOINT Neck
				{
					OFFSET 0.000000 -1.213903 25.460999
					CHANNELS 3 Xrotation Yrotation Zrotation
					JOINT Head
					{
						OFFSET 0.000000 -0.000001 7.692451
						CHANNELS 3 Xrotation Yrotation Zrotation
						End Site
						{
							OFFSET 0.000000 6.140626 18.620003
						}
					}
				}
				JOINT RightShoulder
				{
					OFFSET -4.175751 0.581443 10.709602
					CHANNELS 3 Xrotation Yrotation Zrotation
					JOINT RightArm
					{
						OFFSET 0.000000 -0.000002 14.046600
						CHANNELS 3 Xrotation Yrotation Zrotation
						JOINT RightArmRoll
						{
							OFFSET 0.000000 -0.000001 7.090988
							CHANNELS 3 Xrotation Yrotation Zrotation
							JOINT RightForeArm
							{
								OFFSET 0.000000 -0.000004 20.653496
								CHANNELS 3 Xrotation Yrotation Zrotation
								JOINT RightForeArmRoll
								{
									OFFSET 0.000000 -0.000001 7.957184
									CHANNELS 3 Xrotation Yrotation Zrotation
									JOINT RightHand
									{
										OFFSET 0.000000 -0.000003 15.968307
										CHANNELS 3 Xrotation Yrotation Zrotation
										End Site
										{
											OFFSET 0.000000 0.000000 0.100006
										}
									}
								}
							}
						}
					}
				}
				JOINT LeftShoulder
				{
					OFFSET 4.175751 0.581443 10.709602
					CHANNELS 3 Xrotation Yrotation Zrotation
					JOINT LeftArm
					{
						OFFSET 0.000000 -0.000002 14.046600
						CHANNELS 3 Xrotation Yrotation Zrotation
						JOINT LeftArmRoll
						{
							OFFSET 0.000000 -0.000001 7.090988
							CHANNELS 3 Xrotation Yrotation Zrotation
							JOINT LeftForeArm
							{
								OFFSET 0.000000 -0.000004 20.653496
								CHANNELS 3 Xrotation Yrotation Zrotation
								JOINT LeftForeArmRoll
								{
									OFFSET 0.000000 -0.000001 7.957184
									CHANNELS 3 Xrotation Yrotation Zrotation
									JOINT LeftHand
									{
										OFFSET 0.000000 -0.000003 15.968307
										CHANNELS 3 Xrotation Yrotation Zrotation
										End Site
										{
											OFFSET 0.000000 0.000000 0.100006
										}
									}
								}
							}
						}
					}
				}
			}
		}
	}
	JOINT RightUpLeg
	{
		OFFSET -7.208340 1.108840 -1.321819
		CHANNELS 3 Xrotation Yrotation Zrotation
		JOINT RightUpLegRoll
		{
			OFFSET 0.000000 -0.000003 18.723804
			CHANNELS 3 Xrotation Yrotation Zrotation
			JOINT RightLeg
			{
				OFFSET 0.000000 0.000004 -23.186604
				CHANNELS 3 Xrotation Yrotation Zrotation
				JOINT RightLegRoll
				{
					OFFSET 0.000000 -0.000004 23.262402
					CHANNELS 3 Xrotation Yrotation Zrotation
					JOINT RightFoot
					{
						OFFSET 0.000000 -0.000003 19.362099
						CHANNELS 3 Xrotation Yrotation Zrotation
						JOINT RightToeBase
						{
							OFFSET 0.000000 -0.000003 16.185699
							CHANNELS 3 Xrotation Yrotation Zrotation
							End Site
							{
								OFFSET 0.006859 0.903520 7.838631
							}
						}
					}
				}
			}
		}
	}
	JOINT LeftUpLeg
	{
		OFFSET 7.208340 1.108840 -1.321819
		CHANNELS 3 Xrotation Yrotation Zrotation
		JOINT LeftUpLegRoll
		{
			OFFSET 0.000000 -0.000003 18.723904
			CHANNELS 3 Xrotation Yrotation Zrotation
			JOINT LeftLeg
			{
				OFFSET 0.000000 -0.000004 23.186501
				CHANNELS 3 Xrotation Yrotation Zrotation
				JOINT LeftLegRoll
				{
					OFFSET 0.000000 -0.000004 23.477501
					CHANNELS 3 Xrotation Yrotation Zrotation
					JOINT LeftFoot
					{
						OFFSET 0.000000 -0.000003 19.146996
						CHANNELS 3 Xrotation Yrotation Zrotation
						JOINT LeftToeBase
						{
							OFFSET 0.000000 -0.000003 16.185699
							CHANNELS 3 Xrotation Yrotation Zrotation
							End Site
							{
								OFFSET -0.030746 0.903520 7.838623
							}
						}
					}
				}
			}
		}
	}
}
MOTION
Frames: 5
Frame Time: 0.041667
55.191101 -51.095520 96.569992 -2.700129 -0.048740 0.281801 -1.333009 -0.310256 0.146103 1.337587 -0.613813 0.288086 2.982679 -0.610315 0.295417 9.968010 1.309093 -5.781643 6.299686 -0.856475 -5.829653 -19.869473 -58.330341 -23.492912 -44.950496 -121.771959 -29.289975 0.000001 0.000002 0.000009 0.085231 -11.157192 -0.642462 0.000008 -0.000001 -3.020978 -5.000246 -7.998762 0.000172 -16.678229 61.670454 19.746500 -46.197634 118.187353 38.551794 0.000003 -0.000006 0.000005 0.082159 10.430191 0.928398 0.000006 -0.000011 3.034880 -5.000250 7.998790 -0.000156 -3.544360 -173.877642 3.215210 179.999991 -0.000005 -1.094997 169.574746 -2.142084 -0.558026 -0.000005 0.000003 0.161285 69.509517 6.913631 2.049466 25.456962 -7.355615 0.000000 -1.240611 175.368085 -0.127812 -0.000020 -0.000005 -1.122770 -8.550499 1.111055 0.428948 0.000001 -0.000001 -0.098444 68.997656 -6.845899 -2.249619 25.457165 7.355619 -0.000305 
55.188301 -51.092419 96.597389 -2.677670 -0.044784 0.286339 -1.338838 -0.311868 0.143372 1.325918 -0.617715 0.282570 2.971012 -0.614284 0.289948 10.036189 1.343510 -5.776937 6.268757 -0.888015 -5.821605 -19.803456 -58.313498 -23.414437 -44.911035 -121.778694 -29.223299 0.000001 0.000002 0.000007 0.085231 -11.138590 -0.644072 0.000007 -0.000002 -3.020979 -5.000251 -7.998762 0.000173 -16.674498 61.701655 19.742641 -46.225423 118.153434 38.587348 0.000001 -0.000006 0.000006 0.082156 10.439389 0.924093 0.000007 -0.000012 3.034849 -5.000250 7.998791 -0.000156 -3.568758 -173.883803 3.208348 179.999991 -0.000005 -1.094997 169.581439 -2.142130 -0.557777 -0.000005 0.000002 0.161164 69.505187 6.913662 2.049342 25.456964 -7.355615 0.000000 -1.300857 175.368194 -0.107825 -0.000020 -0.000005 -1.122220 -8.596749 1.094555 0.430872 0.000001 -0.000001 -0.100561 69.014970 -6.848020 -2.242941 25.457155 7.355619 -0.000304 
55.158298 -51.064907 96.581703 -2.654090 -0.040681 0.291362 -1.345109 -0.313564 0.140442 1.313368 -0.621841 0.276649 2.958463 -0.618481 0.284078 10.108265 1.380385 -5.772053 6.234812 -0.921689 -5.813130 -19.732748 -58.295630 -23.330449 -44.867578 -121.786057 -29.151165 0.000001 0.000002 0.000006 0.085231 -11.119191 -0.645703 0.000006 -0.000001 -3.020979 -5.000248 -7.998763 0.000174 -16.670069 61.735314 19.738024 -46.254697 118.116305 38.625075 -0.000000 -0.000006 0.000006 0.082156 10.449489 0.919444 0.000006 -0.000011 3.034809 -5.000252 7.998790 -0.000156 -3.594854 -173.888953 3.201199 179.999991 -0.000005 -1.094997 169.587436 -2.143152 -0.557732 -0.000005 0.000002 0.161067 69.501164 6.913636 2.049490 25.456959 -7.355616 0.000001 -1.364215 175.368317 -0.086753 -0.000020 -0.000005 -1.121630 -8.645719 1.077212 0.432891 0.000001 -0.000002 -0.102774 69.033152 -6.850139 -2.236310 25.457158 7.355619 -0.000304 
55.163399 -51.067917 96.595688 -2.629720 -0.036473 0.296722 -1.351690 -0.315317 0.137372 1.300188 -0.626123 0.270445 2.945285 -0.622835 0.277925 10.183057 1.418990 -5.767084 6.198748 -0.956861 -5.804358 -19.658978 -58.277093 -23.242801 -44.821836 -121.793666 -29.075948 0.000001 0.000002 0.000007 0.085231 -11.099390 -0.647357 0.000005 -0.000001 -3.020981 -5.000247 -7.998761 0.000174 -16.665185 61.770660 19.732893 -46.285211 118.077128 38.664461 0.000001 -0.000006 0.000006 0.082158 10.460189 0.914554 0.000007 -0.000011 3.034760 -5.000252 7.998790 -0.000155 -3.622118 -173.895127 3.193954 179.999991 -0.000005 -1.094997 169.592832 -2.143189 -0.557530 -0.000005 0.000002 0.160984 69.497352 6.913655 2.049428 25.456959 -7.355618 0.000000 -1.429737 175.369437 -0.064947 -0.000020 -0.000005 -1.121010 -8.696585 1.059273 0.434962 0.000001 -0.000001 -0.105056 69.052038 -6.852186 -2.229723 25.457162 7.355619 -0.000304 
55.180099 -51.071217 96.597488 -2.604911 -0.032204 0.302274 -1.358450 -0.317103 0.134220 1.286657 -0.630490 0.264077 2.931756 -0.627279 0.271610 10.259462 1.458591 -5.762123 6.161491 -0.992895 -5.795436 -19.583266 -58.258119 -23.152910 -44.775534 -121.801015 -28.999658 0.000001 0.000002 0.000008 0.085230 -11.079192 -0.649016 0.000004 -0.000001 -3.020979 -5.000249 -7.998763 0.000175 -16.660049 61.807051 19.727466 -46.317453 118.036078 38.705989 0.000001 -0.000006 0.000006 0.082154 10.471191 0.909524 0.000006 -0.000011 3.034699 -5.000252 7.998791 -0.000156 -3.650045 -173.901302 3.186623 179.999991 -0.000005 -1.094996 169.597941 -2.144205 -0.557519 -0.000005 0.000002 0.160912 69.493657 6.913677 2.049364 25.456957 -7.355616 -0.000001 -1.496515 175.369574 -0.042681 -0.000020 -0.000005 -1.120380 -8.748533 1.040988 0.437049 0.000002 -0.000002 -0.107378 69.071265 -6.854273 -2.223119 25.457160 7.355619 -0.000304 
